<?xml version="1.0" encoding="UTF-8"?>
<!DOCTYPE svg PUBLIC "-//W3C//DTD SVG 1.1//EN" "http://www.w3.org/Graphics/SVG/1.1/DTD/svg11.dtd">
<!-- Creator: CorelDRAW X6 -->
<svg xmlns="http://www.w3.org/2000/svg" xml:space="preserve" width="180mm" height="340mm" version="1.1" style="shape-rendering:geometricPrecision; text-rendering:geometricPrecision; image-rendering:optimizeQuality; fill-rule:evenodd; clip-rule:evenodd"
viewBox="0 0 18000 34000"
 xmlns:xlink="http://www.w3.org/1999/xlink">
 <defs>
  <style type="text/css">
   <![CDATA[
    .str0 {stroke:black;stroke-width:150}
    .str1 {stroke:blue;stroke-width:150;stroke-dasharray:750.000000 450.000000}
    .fil0 {fill:none}
   ]]>
  </style>
 </defs>
 <g id="Ebene_x0020_1">
  <metadata id="CorelCorpID_0Corel-Layer"/>
  <line class="fil0 str0" x1="0" y1="16988" x2="1500" y2= "16988" />
  <ellipse class="fil0 str0" cx="2018" cy="17000" rx="518" ry="506"/>
  <line class="fil0 str0" x1="0" y1="12988" x2="1500" y2= "12988" />
  <ellipse class="fil0 str0" cx="2018" cy="13000" rx="518" ry="506"/>
  <line class="fil0 str0" x1="0" y1="4988" x2="1500" y2= "4988" />
  <ellipse class="fil0 str0" cx="2018" cy="5000" rx="518" ry="506"/>
  <line class="fil0 str0" x1="0" y1="8988" x2="1500" y2= "8988" />
  <ellipse class="fil0 str0" cx="2018" cy="9000" rx="518" ry="506"/>
  <line class="fil0 str0" x1="0" y1="988" x2="1500" y2= "988" />
  <ellipse class="fil0 str0" cx="2018" cy="1000" rx="518" ry="506"/>
  <line class="fil0 str0" x1="0" y1="20988" x2="1500" y2= "20988" />
  <ellipse class="fil0 str0" cx="2018" cy="21000" rx="518" ry="506"/>
  <line class="fil0 str0" x1="0" y1="24988" x2="1500" y2= "24988" />
  <ellipse class="fil0 str0" cx="2018" cy="25000" rx="518" ry="506"/>
  <line class="fil0 str0" x1="0" y1="28988" x2="1500" y2= "28988" />
  <ellipse class="fil0 str0" cx="2018" cy="29000" rx="518" ry="506"/>
  <polyline class="fil0 str0" points="18010,17000 15500,17000 2375,1368 "/>
  <polyline class="fil0 str1" points="0,33000 9000,33000 9000,9259 "/>
 </g>
</svg>
