<?xml version="1.0" encoding="UTF-8"?>
<!DOCTYPE svg PUBLIC "-//W3C//DTD SVG 1.1//EN" "http://www.w3.org/Graphics/SVG/1.1/DTD/svg11.dtd">
<!-- Creator: CorelDRAW X6 -->
<svg xmlns="http://www.w3.org/2000/svg" xml:space="preserve" width="200mm" height="200mm" version="1.1" style="shape-rendering:geometricPrecision; text-rendering:geometricPrecision; image-rendering:optimizeQuality; fill-rule:evenodd; clip-rule:evenodd"
viewBox="0 0 20000 20000"
 xmlns:xlink="http://www.w3.org/1999/xlink">
 <defs>
  <style type="text/css">
   <![CDATA[
    .str0 {stroke:black;stroke-width:150}
    .fil0 {fill:none}
    .fil1 {fill:black;fill-rule:nonzero}
   ]]>
  </style>
 </defs>
 <g id="Ebene_x0020_1">
  <metadata id="CorelCorpID_0Corel-Layer"/>
  <polyline class="fil0 str0" points="0,11000 1000,11000 1000,9000 2000,9000 "/>
  <polyline class="fil0 str0" points="500,10500 1000,9500 1500,10500 "/>
  <polyline class="fil0 str0" points="4000,4000 5000,4000 5000,1000 16000,1000 "/>
  <polyline class="fil0 str0" points="4000,9000 6500,9000 6500,6000 16000,6000 "/>
  <polyline class="fil0 str0" points="4000,14000 9500,14000 9500,11000 16000,11000 "/>
  <polyline class="fil0 str0" points="4000,19000 12000,19000 12000,16000 16000,16000 "/>
  <path class="fil1" d="M18850 3612l-310 0 0 -1977c-75,72 -173,143 -294,214 -121,71 -231,125 -327,160l0 -300c173,-81 325,-180 455,-296 130,-116 222,-229 276,-338l200 0 0 2537z"/>
  <path class="fil1" d="M19312 8315l0 297 -1672 0c-2,-75 10,-147 37,-216 43,-114 111,-226 206,-336 95,-110 230,-237 406,-381 273,-225 459,-403 556,-535 98,-132 146,-256 146,-374 0,-123 -44,-226 -132,-311 -88,-84 -203,-126 -345,-126 -150,0 -270,44 -360,134 -90,88 -135,212 -136,370l-318 -32c22,-237 104,-418 247,-543 142,-125 334,-187 574,-187 242,0 435,67 576,202 141,134 212,301 212,500 0,101 -21,201 -62,298 -42,98 -110,201 -206,310 -97,107 -256,256 -478,444 -187,156 -307,262 -359,318 -53,56 -97,112 -132,168l1240 0z"/>
  <path class="fil1" d="M17686 12941l311 -42c35,176 95,303 181,381 85,78 190,116 314,116 147,0 271,-50 371,-151 100,-101 150,-227 150,-376 0,-142 -47,-260 -140,-353 -93,-92 -211,-139 -355,-139 -59,0 -132,12 -220,35l35 -271c20,2 38,3 50,3 133,0 252,-35 358,-103 106,-69 159,-175 159,-318 0,-113 -39,-207 -116,-282 -77,-75 -177,-112 -298,-112 -121,0 -222,38 -302,115 -81,76 -133,191 -156,344l-310 -57c38,-208 124,-370 259,-484 134,-115 301,-172 501,-172 138,0 265,30 381,89 116,59 205,139 266,241 62,102 92,210 92,325 0,109 -29,208 -87,297 -59,89 -146,161 -261,213 149,35 265,106 348,215 83,108 124,245 124,408 0,220 -81,408 -241,561 -162,153 -365,230 -611,230 -221,0 -405,-67 -552,-199 -147,-132 -230,-303 -251,-514z"/>
  <path class="fil1" d="M18677 18612l0 -604 -1097 0 0 -285 1154 -1637 254 0 0 1637 342 0 0 285 -342 0 0 604 -311 0zm0 -889l0 -1137 -792 1137 792 0z"/>
 </g>
</svg>
