<?xml version="1.0" encoding="UTF-8"?>
<!DOCTYPE svg PUBLIC "-//W3C//DTD SVG 1.1//EN" "http://www.w3.org/Graphics/SVG/1.1/DTD/svg11.dtd">
<!-- Creator: CorelDRAW X6 -->
<svg xmlns="http://www.w3.org/2000/svg" xml:space="preserve" width="100mm" height="80mm" version="1.1" style="shape-rendering:geometricPrecision; text-rendering:geometricPrecision; image-rendering:optimizeQuality; fill-rule:evenodd; clip-rule:evenodd"
viewBox="0 0 10000 8000"
 xmlns:xlink="http://www.w3.org/1999/xlink">
 <defs>
  <style type="text/css">
   <![CDATA[
    .str0 {stroke:blue;stroke-width:150}
    .str1 {stroke:lime;stroke-width:150}
    .str2 {stroke:red;stroke-width:150}
    .fil0 {fill:blue;fill-rule:nonzero}
    .fil1 {fill:#009846;fill-rule:nonzero}
    .fil2 {fill:#E31E24;fill-rule:nonzero}
   ]]>
  </style>
 </defs>
 <g id="Ebene_x0020_1">
  <metadata id="CorelCorpID_0Corel-Layer"/>
  <path class="fil0 str0" d="M2000 3917c494,-988 989,-1954 1500,-1954 523,0 1028,1010 1533,2020 495,990 990,1980 1467,1980 235,0 476,-243 688,-547 217,-310 404,-684 529,-933l250 -500 33 17 0 84 -217 433c-125,251 -313,627 -534,942 -225,321 -484,579 -749,579 -523,0 -1028,-1011 -1533,-2021 -495,-990 -990,-1979 -1467,-1979 -477,0 -972,989 -1467,1979l-33 -17 0 -83z"/>
  <path class="fil1 str1" d="M8000 5747c-345,-373 -684,-1052 -1023,-1730 -495,-990 -990,-1979 -1467,-1979 -477,0 -972,989 -1467,1979 -505,1010 -1010,2021 -1533,2021 -175,0 -348,-113 -510,-282l0 -110c164,187 339,317 510,317 477,0 972,-990 1467,-1980 505,-1010 1010,-2020 1533,-2020 523,0 1028,1010 1533,2020 321,641 641,1282 957,1654l0 110z"/>
  <path class="fil2 str2" d="M8000 2351c-166,-187 -329,-301 -489,-304 -475,-9 -957,955 -1445,1931l-19 39c-251,501 -503,1002 -756,1379 -258,385 -519,642 -784,642 -517,0 -1009,-985 -1508,-1982l-19 -39c-249,-499 -501,-998 -751,-1371 -77,-114 -153,-216 -229,-302l0 -110c97,101 194,227 291,370 253,377 505,878 756,1379l19 39c488,977 970,1941 1441,1941 235,0 477,-244 722,-609 250,-373 502,-872 751,-1371l19 -38c499,-998 991,-1983 1513,-1973 163,3 326,104 488,272l0 107z"/>
 </g>
</svg>
